PathFileType	4	(X/Y/Z)	pose_F01_0-79.trc
DataRate	CameraRate	NumFrames	NumMarkers	Units	OrigDataRate	OrigDataStartFrame	OrigNumFrames
30	30	4	21	m	30	0	79
Frame#	Time	CHip			RHip			RKnee			RAnkle			RBigToe			RSmallToe			RHeel			LHip			LKnee			LAnkle			LBigToe			LSmallToe			LHeel			Neck			Nose			RShoulder			RElbow			RWrist			LShoulder			LElbow			LWrist			
		X1	Y1	Z1	X2	Y2	Z2	X3	Y3	Z3	X4	Y4	Z4	X5	Y5	Z5	X6	Y6	Z6	X7	Y7	Z7	X8	Y8	Z8	X9	Y9	Z9	X10	Y10	Z10	X11	Y11	Z11	X12	Y12	Z12	X13	Y13	Z13	X14	Y14	Z14	X15	Y15	Z15	X16	Y16	Z16	X17	Y17	Z17	X18	Y18	Z18	X19	Y19	Z19	X20	Y20	Z20	X21	Y21	Z21	
0	0.0	-0.16872980463409198	1.8938327617032291	-0.6303152106789659	-0.22252580176919198	1.9159090582278797	-0.5153058219854789	-0.11668678621768575	1.7268408274438012	-0.4919686593820199	-0.25820349140244697	1.5560390921930276	-0.33115983979559627	-0.23739654580646663	1.5579627447774453	-0.35955611809423715	-0.2688394706384204	1.4773620087431873	-0.27714605408373905	-0.26729804070515917	1.565499871256872	-0.32448453441739666	-0.2084008405240824	1.8976852102321697	-0.6869655249905136	-0.16932686580885062	1.6872242157310766	-0.6999895116589083	-0.2299462078556609	1.5813542453745741	-0.6192736579417571	-0.17807830304078592	1.567448540298928	-0.7570338072938628	-0.18548813758606417	1.5642050839191353	-0.7633418766522704	-0.24610913673872473	1.5491923943096133	-0.6065608137455193	-0.18709538602989043	2.060229279928995	-0.662807896612143	-0.20251042095813274	2.101773545077062	-0.649513350865944	-0.18484963506578322	2.0476660615641817	-0.5921440704055843	-0.21848019911457997	1.9689070521390524	-0.42114555416596305	-0.246762719621409	2.096280800881167	-0.5552399244989572	-0.16379658428454266	2.0537883727651174	-0.7209882225085211	-0.16968782986511768	1.9913789801259631	-0.8182211610589992	-0.07738735876369279	2.0761943521785535	-0.8703393575305994
1	0.03333333333333333	-0.17401961553839132	1.892467522268998	-0.6202119200053791	-0.22366927714344392	1.9121365349432466	-0.5091909079998214	-0.12847379553940597	1.7260137049214141	-0.48323305846141235	-0.2591910207605939	1.556520694457973	-0.3299317230390898	-0.23674988488108528	1.554902932973812	-0.35980234368416303	-0.26589756090026095	1.4817133034098156	-0.281182691838129	-0.2680885447937033	1.564868696366811	-0.32317166074540055	-0.20876390917147625	1.8963081886865047	-0.6782649220803866	-0.1731775557226043	1.6913076278283603	-0.692064039791997	-0.2299462078556609	1.5813542453745741	-0.6192736579417571	-0.179655287608699	1.565633970962207	-0.7509798740231393	-0.1867155989432473	1.5634545210113562	-0.7579431936321523	-0.24529357597562804	1.5503582354726975	-0.6061217059372015	-0.19121147881178815	2.059882989618822	-0.6498535111543358	-0.202673033030816	2.1037159392909115	-0.6407257609061683	-0.19035632621730975	2.0483752128272728	-0.5771869434660116	-0.2171204450275452	1.9749356976879113	-0.4183553257204847	-0.2430337561523804	2.096836452456346	-0.5445923721812698	-0.16904808527374252	2.054533801142728	-0.7110332007149891	-0.1701327111778793	1.9950689044861063	-0.8105910115765963	-0.08530959969035856	2.0792025714453746	-0.8582449525499646
2	0.06666666666666667	-0.17930942644269066	1.8911022828347668	-0.6101086293317922	-0.22481275251769586	1.9083640116586136	-0.5030759940141636	-0.1402608048611262	1.7251865823990271	-0.4744974575408048	-0.26017855011874086	1.5570022967229185	-0.3287036062825833	-0.23610322395570393	1.5518431211701786	-0.3600485692740889	-0.2629556511621015	1.4860645980764438	-0.28521932959251894	-0.26887904888224745	1.56423752147675	-0.32185878707340443	-0.2091269778188701	1.8949311671408398	-0.6695643191702596	-0.17702824563635797	1.695391039925644	-0.6841385679250858	-0.2299462078556609	1.5813542453745741	-0.6192736579417571	-0.18123227217661209	1.5638194016254858	-0.7449259407524157	-0.18794306030043043	1.562703958103577	-0.7525445106120343	-0.24447801521253137	1.5515240766357814	-0.6056825981288837	-0.19532757159368588	2.059536699308649	-0.6368991256965285	-0.20283564510349925	2.105658333504761	-0.6319381709463926	-0.19586301736883627	2.0490843640903638	-0.562229816526439	-0.21576069094051045	1.9809643432367703	-0.4155650972750064	-0.2393047926833518	2.097392104031525	-0.5339448198635823	-0.17429958626294237	2.0552792295203384	-0.7010781789214571	-0.1705775924906409	1.9987588288462494	-0.8029608620941934	-0.09323184061702433	2.0822107907121956	-0.8461505475693297
3	0.1	-0.18459923734699	1.8897370434005356	-0.6000053386582054	-0.2259562278919478	1.9045914883739805	-0.496961080028506	-0.1520478141828464	1.72435945987664	-0.46576185662019726	-0.2611660794768878	1.5574838989878639	-0.32747548952607686	-0.23545656303032259	1.5487833093665453	-0.3602947948640148	-0.2600137414239421	1.490415892743072	-0.2892559673469089	-0.2696695529707916	1.5636063465866892	-0.3205459134014083	-0.20949004646626396	1.8935541455951748	-0.6608637162601326	-0.18087893555011164	1.6994744520229277	-0.6762130960581745	-0.2299462078556609	1.5813542453745741	-0.6192736579417571	-0.18280925674452517	1.5620048322887647	-0.7388720074816921	-0.18917052165761356	1.561953395195798	-0.7471458275919163	-0.2436624544494347	1.5526899177988653	-0.6052434903205659	-0.1994436643755836	2.0591904089984756	-0.6239447402387213	-0.2029982571761825	2.107600727718611	-0.6231505809866169	-0.2013697085203628	2.0497935153534548	-0.5472726895868665	-0.2144009368534757	1.9869929887856292	-0.4127748688295281	-0.2355758292143232	2.097947755606704	-0.5232972675458948	-0.17955108725214222	2.056024657897949	-0.691123157127925	-0.1710224738034025	2.0024487532063926	-0.7953307126117904	-0.1011540815436901	2.0852190099790167	-0.8340561425886949
